<svg width="19" height="21" viewBox="0 0 19 21" fill="none" xmlns="http://www.w3.org/2000/svg">
<path d="M9.94197 12.9276V20.2093H0.639649C0.63936 19.0617 0.89911 17.9292 1.399 16.8986C1.89888 15.8681 2.62564 14.967 3.52357 14.2641C4.42151 13.5611 5.46679 13.0753 6.57933 12.8436C7.69186 12.612 8.84212 12.6408 9.94197 12.9276ZM8.08151 11.751C4.99779 11.751 2.50011 9.22763 2.50011 6.11217C2.50011 2.99671 4.99779 0.473343 8.08151 0.473343C11.1652 0.473343 13.6629 2.99671 13.6629 6.11217C13.6629 9.22763 11.1652 11.751 8.08151 11.751ZM13.6629 15.5102V12.2209L18.3141 16.4501L13.6629 20.6791V17.3898H10.8722V15.5102H13.6629Z" fill="white"/>
</svg>
