<svg width="20" height="21" viewBox="0 0 20 21" fill="none" xmlns="http://www.w3.org/2000/svg">
<path d="M3.10349 4.90296L0 1.81925L1.35413 0.473343L4.45666 3.558H19.043C19.1921 3.55799 19.3392 3.59263 19.4725 3.65917C19.6058 3.72571 19.7216 3.8223 19.8107 3.94122C19.8997 4.06015 19.9596 4.19813 19.9855 4.34414C20.0114 4.49014 20.0025 4.64014 19.9597 4.78216L17.663 12.3915C17.6039 12.5876 17.4828 12.7595 17.3176 12.8816C17.1525 13.0038 16.9521 13.0697 16.7462 13.0697H5.01745V14.9721H15.5442V16.8745H4.06047C3.80666 16.8745 3.56325 16.7743 3.38378 16.5959C3.20431 16.4174 3.10349 16.1756 3.10349 15.9233V4.90296ZM4.53896 20.6791C4.15825 20.6791 3.79313 20.5288 3.52393 20.2613C3.25472 19.9937 3.10349 19.6308 3.10349 19.2524C3.10349 18.874 3.25472 18.5111 3.52393 18.2435C3.79313 17.9759 4.15825 17.8256 4.53896 17.8256C4.91967 17.8256 5.28479 17.9759 5.55399 18.2435C5.82319 18.5111 5.97443 18.874 5.97443 19.2524C5.97443 19.6308 5.82319 19.9937 5.55399 20.2613C5.28479 20.5288 4.91967 20.6791 4.53896 20.6791ZM16.0227 20.6791C15.642 20.6791 15.2769 20.5288 15.0077 20.2613C14.7385 19.9937 14.5873 19.6308 14.5873 19.2524C14.5873 18.874 14.7385 18.5111 15.0077 18.2435C15.2769 17.9759 15.642 17.8256 16.0227 17.8256C16.4034 17.8256 16.7685 17.9759 17.0378 18.2435C17.307 18.5111 17.4582 18.874 17.4582 19.2524C17.4582 19.6308 17.307 19.9937 17.0378 20.2613C16.7685 20.5288 16.4034 20.6791 16.0227 20.6791Z" fill="white"/>
</svg>
