<svg width="16" height="18" viewBox="0 0 16 18" fill="none" xmlns="http://www.w3.org/2000/svg">
<path fill-rule="evenodd" clip-rule="evenodd" d="M3.99782 2.33184C4.20421 0.990305 5.35852 0 6.71584 0H9.28416C10.6415 0 11.7958 0.990306 12.0022 2.33184L12.105 2.99996H13.4955H15L15 3H16V4.5H14.8833L14.0486 15.2326C13.9271 16.7945 12.6242 18 11.0576 18H4.94239C3.37576 18 2.07291 16.7945 1.95143 15.2326L1.11667 4.5H0V3H1L1 2.99996H2.50453H3.89503L3.99782 2.33184ZM10.5873 2.99996H5.41268L5.48037 2.55993C5.57419 1.95014 6.09887 1.5 6.71584 1.5H9.28416C9.90113 1.5 10.4258 1.95014 10.5196 2.55993L10.5873 2.99996ZM2.6212 4.5L3.44691 15.1163C3.50765 15.8972 4.15908 16.5 4.94239 16.5H11.0576C11.8409 16.5 12.4923 15.8972 12.5531 15.1163L13.3788 4.5L2.6212 4.5Z" fill="black"/>
</svg>
